<svg width="211" height="58" viewBox="0 0 211 58" fill="none" xmlns="http://www.w3.org/2000/svg">
<g clip-path="url(#clip0)">
<path d="M63.3034 35.2293L61.6544 30.585H53.7129L52.0366 35.2293H48.2722L54.5097 16.406C54.8578 15.344 55.5177 14.812 56.4885 14.812H58.8514C59.8225 14.812 60.4815 15.344 60.8303 16.406L67.0678 35.2293H63.3034ZM60.583 27.288L57.89 19.0443H57.5325L54.7846 27.288H60.583Z" fill="#1F446E"/>
<path d="M68.1671 35.1739V15.9108C68.1671 15.1417 68.6431 14.7568 69.5952 14.7568H73.3605C74.1297 14.7568 74.6521 15.0963 74.9262 15.7742L78.059 28.0015H78.3065L81.2471 15.8016C81.5219 15.1237 82.0342 14.7842 82.7861 14.7842H86.6331C87.5122 14.7842 87.952 15.1597 87.952 15.9108V35.1739H84.1876V19.3187L83.8577 19.3737L80.5598 30.7222C80.2479 31.547 79.7169 31.9587 78.9657 31.9587H77.4827C76.7128 31.9587 76.1448 31.5566 75.7787 30.7498L72.3158 19.374H71.9317V35.1741H68.1671V35.1739Z" fill="#1F446E"/>
<path d="M103.779 35.2288L102.13 30.5846H94.189L92.5126 35.2288H88.7482L94.9858 16.4055C95.3338 15.3435 95.9938 14.8115 96.9646 14.8115H99.3275C100.299 14.8115 100.958 15.3435 101.306 16.4055L107.544 35.2288H103.779ZM101.059 27.2876L98.3658 19.0438H98.0084L95.2604 27.2876H101.059Z" fill="#1F446E"/>
<path d="M112.352 14.7844V29.843C112.352 31.1989 112.38 31.8768 112.435 31.8768H121.585V35.1738H112.435C109.797 35.1738 108.478 33.3969 108.478 29.843V14.7844H112.352Z" fill="#1F446E"/>
<path d="M123.262 14.8396L129.664 33.5803H129.747L136.204 14.8396H138.183L131.258 34.1027C130.983 34.8718 130.553 35.2566 129.967 35.2566H129.444C128.821 35.2566 128.382 34.8716 128.125 34.1027L121.393 14.8396H123.262Z" fill="#19BCC1"/>
<path d="M151.153 35.2566L148.9 28.9917H140.628L138.375 35.2566H136.726L143.074 15.911C143.312 15.1971 143.825 14.8396 144.613 14.8396H144.888C145.694 14.8396 146.207 15.1971 146.427 15.911L152.802 35.2566H151.153ZM148.487 27.4527L144.668 16.516L141.068 27.4527H148.487Z" fill="#19BCC1"/>
<path d="M155.439 14.8396V29.8982C155.439 32.4081 156.08 33.6626 157.363 33.6626H166.265V35.2017H157.363C154.926 35.2017 153.708 33.4341 153.708 29.8982V14.8396H155.439Z" fill="#19BCC1"/>
<path d="M169.178 14.8396V29.8982C169.178 32.4081 169.819 33.6626 171.101 33.6626H180.004V35.2017H171.101C168.665 35.2017 167.447 33.4341 167.447 29.8982V14.8396H169.178Z" fill="#19BCC1"/>
<path d="M194.486 16.351H184.759C183.257 16.351 182.506 17.1485 182.506 18.7416V24.3199H192.095V25.804H182.506V31.3823C182.506 32.9583 183.257 33.7452 184.759 33.7452H194.431V35.0367L184.759 35.2566C182.157 35.2566 180.857 33.9651 180.857 31.3823V18.7416C180.875 16.1405 182.176 14.8396 184.759 14.8396L194.486 15.0871V16.351Z" fill="#19BCC1"/>
<path d="M196.794 14.8669L203.004 27.2328H202.537L208.994 14.8669H211L203.663 28.6343V35.2566H201.877V28.6343L194.787 14.8669H196.794Z" fill="#19BCC1"/>
<path d="M88.2234 41.6773C88.2234 42.8626 87.5891 43.9414 86.2468 43.9414C85.0218 43.9414 84.3074 42.9545 84.3074 41.7074C84.3074 40.4782 84.9984 39.4734 86.2904 39.4734C87.4833 39.4731 88.2234 40.4097 88.2234 41.6773ZM84.6811 41.6891C84.6811 42.6843 85.2289 43.6209 86.2658 43.6209C87.3827 43.6209 87.8504 42.7078 87.8504 41.6827C87.8504 40.6757 87.3206 39.7936 86.2773 39.7936C85.168 39.7936 84.6811 40.7109 84.6811 41.6891Z" fill="#414242"/>
<path d="M93.8202 41.8567V43.8794H93.4667V39.5361H95.0311C95.8897 39.5361 96.3436 39.9964 96.3436 40.6788C96.3436 41.231 96.0147 41.5907 95.5352 41.6964C95.9763 41.8012 96.2753 42.0916 96.2753 42.8304V42.999C96.2753 43.3023 96.2507 43.7103 96.3308 43.8789H95.9782C95.8971 43.693 95.9151 43.3459 95.9151 42.9712V42.8612C95.9151 42.1522 95.7058 41.8564 94.877 41.8564H93.8202V41.8567ZM93.8202 41.5362H94.8635C95.6205 41.5362 95.9709 41.2532 95.9709 40.6872C95.9709 40.1564 95.626 39.8551 94.9542 39.8551H93.8202V41.5362Z" fill="#414242"/>
<path d="M105.024 43.8795H104.735C104.711 43.8282 104.698 43.6061 104.691 43.1907C104.534 43.4888 104.192 43.9298 103.292 43.9298C102.044 43.9298 101.404 42.9804 101.404 41.7458C101.404 40.4484 102.088 39.4734 103.362 39.4734C104.302 39.4734 104.924 39.9667 105.06 40.7666H104.712C104.528 40.159 104.104 39.7939 103.35 39.7939C102.268 39.7939 101.777 40.6355 101.777 41.7269C101.777 42.7137 102.25 43.6105 103.307 43.6105C104.387 43.6105 104.688 42.9057 104.688 41.9564V41.9073H103.296V41.5868H105.023V43.8795H105.024Z" fill="#414242"/>
<path d="M110.961 42.3886L110.414 43.8794H110.06L111.652 39.5361H112.067L113.726 43.8794H113.347L112.788 42.3886H110.961ZM112.673 42.0684C112.193 40.7858 111.946 40.1665 111.858 39.8729H111.853C111.747 40.203 111.47 40.9707 111.081 42.0684H112.673Z" fill="#414242"/>
<path d="M118.786 43.8794V39.5361H119.296C119.97 40.5762 121.545 42.9887 121.816 43.4608H121.823C121.785 42.8371 121.792 42.1954 121.792 41.4883V39.5361H122.144V43.8794H121.671C121.029 42.8778 119.426 40.3627 119.119 39.8845H119.112C119.144 40.4515 119.138 41.0902 119.138 41.8771V43.8794H118.786Z" fill="#414242"/>
<path d="M128.057 39.5361V43.8794H127.709V39.5361H128.057Z" fill="#414242"/>
<path d="M133.148 43.5909L135.955 39.8554H133.296V39.5361H136.368V39.8374L133.579 43.5591H136.424L136.368 43.8796H133.148V43.5909H133.148Z" fill="#414242"/>
<path d="M141.936 42.3886L141.388 43.8794H141.034L142.627 39.5361H143.041L144.701 43.8794H144.321L143.762 42.3886H141.936ZM143.647 42.0684C143.167 40.7858 142.92 40.1665 142.833 39.8729H142.827C142.721 40.203 142.444 40.9707 142.055 42.0684H143.647Z" fill="#414242"/>
<path d="M150.101 39.8554H148.645V39.5361H151.916V39.8554H150.455V43.8791H150.101V39.8554Z" fill="#414242"/>
<path d="M157.202 39.5361V43.8794H156.854V39.5361H157.202Z" fill="#414242"/>
<path d="M166.363 41.6773C166.363 42.8626 165.729 43.9414 164.386 43.9414C163.161 43.9414 162.448 42.9545 162.448 41.7074C162.448 40.4782 163.138 39.4734 164.43 39.4734C165.623 39.4731 166.363 40.4097 166.363 41.6773ZM162.821 41.6891C162.821 42.6843 163.369 43.6209 164.405 43.6209C165.522 43.6209 165.99 42.7078 165.99 41.6827C165.99 40.6757 165.46 39.7936 164.417 39.7936C163.308 39.7936 162.821 40.7109 162.821 41.6891Z" fill="#414242"/>
<path d="M171.606 43.8794V39.5361H172.117C172.791 40.5762 174.366 42.9887 174.637 43.4608H174.644C174.606 42.8371 174.612 42.1954 174.612 41.4883V39.5361H174.965V43.8794H174.492C173.85 42.8778 172.247 40.3627 171.94 39.8845H171.933C171.964 40.4515 171.959 41.0902 171.959 41.8771V43.8794H171.606Z" fill="#414242"/>
<path d="M6.30779 29.9052C6.11895 31.2741 6.59104 31.9821 6.30779 32.6431C6.02453 33.304 5.69419 34.4841 5.97745 35.2865C6.2607 36.089 6.68546 37.8356 7.06314 37.8829C7.44081 37.93 6.77988 35.9948 7.15755 36.6084C7.53523 37.222 7.53523 38.1353 8.19616 38.7645C8.85708 39.3936 9.75393 39.2992 10.4619 39.913C11.1702 40.5266 11.8782 41.4235 12.5392 41.329C12.5392 41.329 12.4921 41.8011 12.1615 42.6036C11.8311 43.406 11.7838 44.3502 12.2086 44.9167C12.6333 45.4832 13.0583 46.3327 13.436 46.7577C13.8137 47.1825 14.0969 49.4485 14.0025 50.5813C13.9081 51.7143 14.4273 54.2634 15.6076 54.8299C16.7877 55.3964 15.6076 54.5466 15.3717 53.8386C15.1355 53.1306 15.5541 51.4784 16.1238 51.2422C16.6936 51.0063 17.2127 50.0621 17.6375 49.4012C18.0623 48.7403 19.1482 48.4573 19.4785 47.6546C19.8091 46.8519 19.6674 45.908 19.8562 45.483C20.045 45.0582 20.5642 44.114 19.4314 43.5475C18.2984 42.981 17.8266 43.2643 17.7792 42.7451C17.7319 42.2259 17.4487 41.6594 16.6462 41.4232C15.8438 41.1873 15.1355 40.7288 14.2387 40.6274C13.3418 40.5264 13.153 41.2344 12.6809 40.8567C12.2088 40.479 11.8311 40.1014 11.6423 39.6293C11.4535 39.1572 10.887 39.4404 10.9343 39.1572C10.9814 38.8739 11.7367 38.0715 10.8872 38.3547C10.0374 38.638 9.28209 38.5436 9.32942 37.7882C9.37675 37.0329 10.4151 36.7496 10.8401 36.6552C11.2651 36.5608 11.5955 37.08 12.1146 37.4106C12.6338 37.7411 12.1617 36.9385 12.4452 36.3722C12.7285 35.8057 13.8142 35.853 13.9557 35.0504C14.0972 34.2479 13.9086 33.587 14.7581 33.4926C15.6079 33.3982 16.5047 33.5397 16.5991 33.1149C16.6936 32.6901 15.6079 33.2566 15.5605 32.7372C15.5135 32.218 16.5045 31.5098 16.788 32.0292C17.0712 32.5484 17.7792 32.5955 17.8737 32.4069C17.9681 32.218 17.8737 31.8877 17.5431 31.085C17.2127 30.2826 16.8821 30.5185 16.5991 29.6217C16.3159 28.7248 15.8438 29.6688 15.3717 29.1969C14.8996 28.7248 14.3331 27.7336 14.2387 28.5833C14.1443 29.4331 14.1443 29.9049 13.7195 30.5659C13.2947 31.2268 13.1059 30.7074 12.7282 30.2826C12.3506 29.8578 11.5008 29.4328 11.7843 29.0552C12.0676 28.6775 12.3508 27.6862 12.7756 27.9695C13.2003 28.2527 13.8613 28.2527 13.7668 27.7806C13.6724 27.3085 13.7668 27.1197 13.9557 26.8838C14.1445 26.6479 14.8054 26.2229 14.8054 27.0726C14.8054 27.9224 14.711 28.1583 15.3719 28.2527C16.0329 28.3471 16.788 28.3945 16.7409 27.9695C16.6936 27.5447 16.9297 27.6389 16.7409 26.9309C16.5521 26.2229 15.9855 26.1755 15.3719 25.8452C14.7584 25.5148 14.4278 24.9954 13.9086 25.1843C13.3894 25.3731 13.3421 25.5619 13.295 26.0811C13.2479 26.6003 12.9647 26.7891 12.7758 26.5532C12.587 26.3173 12.8229 25.5619 12.1149 26.034C11.4069 26.5061 11.1236 27.3085 10.7459 26.742C10.3683 26.1755 11.3125 25.1843 10.3212 25.609C9.32992 26.0338 8.62165 26.5059 9.14108 26.6947C9.66026 26.8835 10.1797 27.2139 9.66026 27.4027C9.14108 27.5916 8.10248 27.2612 7.7248 27.6386C7.34639 28.0168 6.30779 29.9052 6.30779 29.9052Z" fill="#19BCC1"/>
<path d="M12.5046 24.9582C12.5022 25.4858 12.6461 25.9021 13.1182 25.4303C13.5903 24.9582 13.8736 24.3919 14.2039 24.6279C14.5342 24.8638 15.1008 24.8012 15.3367 24.7854C15.5728 24.7696 15.6199 24.0613 16.2809 24.1558C16.9418 24.2502 16.7056 24.0143 17.4139 23.6366C18.1219 23.2589 19.6326 22.5982 18.0748 22.7868C16.517 22.9757 16.4226 22.5509 15.3369 23.2589C14.2512 23.9669 14.0151 23.9669 13.7321 24.1558C13.4488 24.3446 13.1185 23.5893 12.7408 24.1558C12.3629 24.722 12.5071 24.4205 12.5046 24.9582Z" fill="#19BCC1"/>
<path d="M17.5428 23.3433C16.9849 23.8253 16.1268 24.5234 16.7875 24.5234C17.4484 24.5234 17.7691 24.1776 18.1281 24.6336C18.487 25.0899 18.3452 25.798 18.3452 26.1283C18.3452 26.4586 18.1564 27.214 18.6285 28.1582C19.1006 29.1024 19.1477 29.716 19.6198 29.1024C20.0919 28.4888 21.2246 27.3087 21.7911 27.2142C22.3577 27.1198 22.9242 26.8836 23.2074 26.4116C23.4907 25.9395 23.2074 25.4814 23.6795 25.1439C24.1516 24.8067 24.0572 24.3817 24.1987 23.8625C24.3402 23.3433 25.615 23.3433 25.0485 23.0601C24.4819 22.7768 23.4433 22.588 22.2162 22.7295C20.9887 22.8712 18.5814 22.4465 17.5428 23.3433Z" fill="#19BCC1"/>
<path d="M38.679 37.3659C38.5094 36.4047 35.8252 28.4462 35.8252 28.4462C35.8252 28.4462 33.1352 25.7443 32.5699 26.1967C32.0044 26.6491 31.0432 26.5805 31.1563 26.1343C31.2695 25.6879 32.0044 25.801 30.7604 24.9528C29.5165 24.1047 29.2904 23.3696 28.3292 24.4439C27.368 25.5183 27.1417 26.423 26.5764 26.7055C26.0109 26.9883 25.5588 27.893 26.1808 28.1191C26.8027 28.3452 26.8592 28.1191 27.368 28.5715C27.8768 29.0238 28.5555 28.9107 28.6684 28.6282C28.7816 28.3454 28.8945 27.4407 28.9512 27.1014C29.0077 26.7622 29.5828 25.6314 29.5214 26.5362C29.46 27.4409 30.3081 27.4409 29.7428 28.0629C29.1773 28.6849 29.5165 29.1937 28.3857 29.3068C27.2549 29.42 27.1982 28.7413 26.5762 29.0805C25.9542 29.4197 26.0107 29.6461 25.7846 29.9853C25.5585 30.3245 24.371 31.0032 24.371 31.0032C24.371 31.0032 23.4099 30.664 23.8622 31.2859C24.3146 31.9079 24.7105 32.643 24.3146 32.6995C23.9189 32.7559 22.8446 32.134 22.8446 32.8126C22.8446 33.4911 22.675 34.2262 23.1273 34.3958C23.4468 34.5156 23.6539 34.7747 23.9468 34.7385C23.7197 34.8366 23.5131 34.9786 23.3536 35.1874C22.9138 35.7625 23.184 36.7706 22.2793 37.1098C21.3746 37.449 21.3746 37.8449 21.205 38.5798C21.0353 39.3149 21.205 41.1809 21.431 41.3505C21.6571 41.5201 22.053 42.9336 23.0142 42.8205C23.9754 42.7073 24.9933 42.6637 25.3325 42.8269C25.6717 42.9901 26.2372 42.4813 26.4068 43.7817C26.5764 45.0821 26.9724 45.2517 27.1984 45.9304C27.4245 46.6088 27.0853 48.0224 27.1984 48.8707C27.3116 49.7187 28.1032 51.189 28.1032 51.9238C28.1032 52.659 28.9514 52.9982 29.4036 52.7154C29.8559 52.4327 30.8171 51.8674 31.213 50.9627C31.6087 50.0579 31.6087 49.6055 32.2307 48.4183C32.8527 47.2308 32.6831 46.3828 32.9658 45.478C33.2486 44.5733 33.9287 43.9513 34.8608 42.9336C35.7929 41.916 35.6251 41.3505 34.8608 41.4069C34.0966 41.4634 33.5868 40.7285 33.1916 39.8238C32.7962 38.919 32.3438 36.6574 32.6831 37.3925C33.0223 38.1277 33.7007 40.1632 34.3794 40.5024C35.0578 40.8417 36.3018 39.9261 36.5845 39.5923C36.8673 39.2585 36.7541 38.2973 36.019 37.9014C35.2839 37.5057 35.7362 37.1662 36.4714 37.6186C37.2063 38.0707 38.8486 38.3271 38.679 37.3659ZM31.8915 35.1305C31.835 35.5828 32.0611 36.3177 30.8171 36.0352C29.5732 35.7524 29.5732 35.074 29.0644 35.5828C28.5555 36.0916 27.9336 36.544 27.1984 35.7524C26.4633 34.9608 26.5764 34.7348 26.1808 34.6781C25.899 34.6379 24.959 34.4281 24.1753 34.6559C24.2362 34.6199 24.3013 34.5716 24.3715 34.5085C24.9371 33.9997 24.8239 33.83 25.4459 33.2645C26.0679 32.699 26.5202 32.1902 26.9726 32.699C27.425 33.2078 28.3862 33.321 28.0469 33.8865C27.7077 34.452 27.9338 34.7912 28.3297 34.452C28.7254 34.1128 29.2909 33.8865 28.895 33.4341C28.4993 32.9818 28.1034 31.7945 28.6689 32.5861C29.2345 33.3777 29.4041 33.7736 29.7433 34.2257C30.0825 34.6781 30.4217 34.9608 30.5349 34.6781C30.648 34.3953 30.4784 33.7733 30.648 33.6604C30.8176 33.5473 30.648 34.6216 31.1568 34.6781C31.6652 34.7345 31.9479 34.6781 31.8915 35.1305ZM33.1914 33.2081C32.795 32.982 32.0608 33.2081 31.1563 33.4908C30.2516 33.7736 30.9754 32.8617 31.3824 32.2469C31.7465 31.6974 31.552 32.4165 32.3436 32.4729C33.1352 32.5294 33.5876 33.4341 33.1914 33.2081ZM35.1707 34.9608C35.0011 35.1307 34.7184 34.1693 34.5487 33.7169C34.3791 33.2645 34.3833 32.4784 34.8606 32.041C35.4552 31.496 35.1707 32.7555 35.1707 33.4339C35.1707 34.1126 35.3403 34.7912 35.1707 34.9608Z" fill="#19BCC1"/>
<path d="M14.2027 16.9917C14.4635 14.9009 15.318 12.6849 14.0163 10.7689C15.1755 12.465 15.2731 14.7727 14.7914 16.8667C15.3276 15.9617 15.8238 14.9694 16.1611 13.953C17.1427 10.9953 16.4007 6.63377 13.984 5.72928C13.5536 5.5683 13.5908 6.42274 13.5605 6.65374C13.3953 7.90435 12.7719 9.02134 12.3321 10.1859C11.525 12.323 11.8851 14.6633 13.4878 16.3337C13.7119 16.5679 13.95 16.7888 14.2027 16.9917Z" fill="#19BCC1"/>
<path d="M21.1038 12.6909C21.2845 11.2423 21.8764 9.70698 20.9746 8.37945C21.7778 9.55463 21.8456 11.1536 21.5116 12.6044C21.8831 11.9775 22.227 11.2899 22.4607 10.5856C23.1408 8.53624 22.6266 5.51436 20.9522 4.88745C20.6539 4.77578 20.6798 5.36793 20.6586 5.52792C20.5442 6.39445 20.1123 7.16829 19.8074 7.9754C19.2482 9.45627 19.498 11.0776 20.6083 12.2351C20.7639 12.397 20.9288 12.5501 21.1038 12.6909Z" fill="#19BCC1"/>
<path d="M25.9561 6.68088C26.1013 5.5173 26.5766 4.28419 25.8523 3.21773C26.4975 4.16167 26.5517 5.44605 26.2838 6.61137C26.5821 6.10772 26.8584 5.55551 27.046 4.98998C27.5923 3.34395 27.1794 0.916685 25.8344 0.413285C25.5947 0.32355 25.6157 0.79934 25.5987 0.927778C25.5067 1.62371 25.1599 2.24544 24.9151 2.89355C24.4659 4.08278 24.6663 5.38541 25.5582 6.31504C25.683 6.44496 25.8154 6.56773 25.9561 6.68088Z" fill="#19BCC1"/>
<path d="M17.6104 18.8527C19.3701 18.8307 21.3011 19.2858 22.7386 17.9911C21.4668 19.1431 19.5683 19.4862 17.7808 19.3255C18.5906 19.6662 19.468 19.9642 20.3476 20.1277C22.9067 20.6037 26.4315 19.4939 26.9053 17.3913C26.9896 17.0168 26.2868 17.1447 26.0923 17.1457C25.0386 17.1511 24.0434 16.7624 23.0297 16.5307C21.1695 16.1056 19.2737 16.6697 18.0736 18.1858C17.9053 18.3983 17.7497 18.6207 17.6104 18.8527Z" fill="#19BCC1"/>
<path d="M24.1859 12.7763C25.7045 12.7573 27.3707 13.1503 28.6112 12.0328C27.5137 13.027 25.8753 13.3231 24.3328 13.1843C25.0317 13.4784 25.7888 13.7355 26.5479 13.8766C28.7562 14.2873 31.798 13.3295 32.2068 11.5151C32.2795 11.1919 31.6731 11.3024 31.5052 11.3034C30.596 11.308 29.7371 10.9725 28.8622 10.7726C27.2569 10.4058 25.6212 10.8926 24.5855 12.2009C24.4406 12.3844 24.3062 12.5762 24.1859 12.7763Z" fill="#19BCC1"/>
<path d="M27.7393 7.27389C29.1679 6.75841 30.8706 6.58363 31.6765 5.12125C30.9653 6.42018 29.5145 7.23666 28.0117 7.61113C28.7682 7.65994 29.568 7.65477 30.3312 7.53939C32.5524 7.20388 35.1123 5.3022 34.904 3.45402C34.867 3.12491 34.33 3.42788 34.1715 3.48385C33.3141 3.78633 32.3926 3.75058 31.5007 3.84845C29.8638 4.02792 28.4778 5.02387 27.9281 6.5994C27.8514 6.82004 27.7873 7.04512 27.7393 7.27389Z" fill="#19BCC1"/>
<path d="M29.7627 22.9497C34.1718 25.0372 37.6635 29.1988 39.0411 34.0997C40.4266 38.9904 39.6811 44.5394 36.8914 48.9643C34.1849 53.4443 29.4299 56.6178 24.233 57.5958C19.0333 58.5865 13.4296 57.2869 9.16746 54.1013C4.91346 50.9199 2.03876 45.9404 1.51145 40.6574C0.979943 35.3951 2.63411 30.0407 5.70727 25.9651C8.71485 21.8176 12.7706 18.7418 16.8232 16.0948C18.8304 14.7626 20.7945 13.3644 22.6607 11.8505C23.5863 11.087 24.5014 10.3045 25.3357 9.44341C25.7518 9.01323 26.1578 8.57023 26.5128 8.08827C26.8592 7.60928 27.2189 7.09059 27.2613 6.48242C27.3076 7.09873 27.0147 7.69112 26.7327 8.22608C26.4406 8.7704 26.0925 9.28021 25.7309 9.77991C24.9881 10.764 24.1514 11.6643 23.3031 12.5533C21.5878 14.3132 19.7162 15.8971 17.8266 17.4502C16.8688 18.2297 15.9217 18.9493 15.0177 19.7242C14.1098 20.4948 13.2314 21.2943 12.391 22.1258C10.7072 23.7898 9.16377 25.5463 7.91537 27.4842C6.67561 29.4194 5.71195 31.4971 5.15604 33.6658C4.58411 35.8243 4.46602 38.1079 4.74262 40.2881C5.27142 44.6696 7.67625 48.7582 11.2215 51.3508C12.9686 52.6739 14.9874 53.6373 17.1203 54.155C19.2527 54.6816 21.4985 54.7356 23.6736 54.4011C28.0398 53.7461 32.0921 51.1822 34.6611 47.496C37.2282 43.8205 38.2961 39.0378 37.4086 34.4872C36.5823 29.9245 33.7791 25.6952 29.7627 22.9497Z" fill="#1F446E"/>
<path d="M3.4663 26.1693C3.86148 22.9995 5.15695 19.6399 3.18378 16.7349C4.94149 19.3064 5.08941 22.8053 4.35871 25.98C5.1715 24.6081 5.92413 23.1036 6.43542 21.5626C7.92368 17.0783 6.79855 10.4656 3.13473 9.09416C2.48218 8.84986 2.53863 10.1456 2.49253 10.4956C2.24207 12.3917 1.2969 14.0853 0.630052 15.8511C-0.593688 19.0912 -0.0473931 22.6396 2.38234 25.1721C2.72229 25.5269 3.08345 25.8617 3.4663 26.1693Z" fill="#19BCC1"/>
</g>
<defs>
<clipPath id="clip0">
<rect width="211" height="57.5195" fill="white" transform="translate(0 0.401855)"/>
</clipPath>
</defs>
</svg>
